<svg width="18" height="22" viewBox="0 0 18 22" fill="none" xmlns="http://www.w3.org/2000/svg">
<path d="M10.1788 8.65974C17.934 2.50662 11.5167 -1.19232 9.00023 1.60378C6.48514 -1.19076 0.0656176 2.50613 7.82163 8.65972C-1.38473 5.02005 -1.37946 12.4271 2.30028 13.2084C1.23564 16.4826 6.52266 19.8709 8.53549 12.8976C8.75492 18.131 6.10131 19.6696 6.08263 19.686C5.15051 20.5075 6.39201 21.9174 7.32474 21.0954L7.33552 21.0859C8.28308 20.2508 10.0754 17.9877 9.69664 13.6161C11.8534 19.6246 16.7267 16.3655 15.7001 13.2084C19.3778 12.4275 19.386 5.01963 10.1788 8.65974Z" fill="#2AC1B9"/>
</svg>
