<svg width="24" height="24" viewBox="0 0 24 24" fill="none" xmlns="http://www.w3.org/2000/svg">
<path d="M17 4C20.3137 4 23 6.68629 23 10V14C23 17.3137 20.3137 20 17 20H7C3.68629 20 1 17.3137 1 14V10C1 6.68629 3.68629 4 7 4H17ZM10 9H8V11H6V13H7.999L8 15H10L9.999 13H12V11H10V9ZM18 13H16V15H18V13ZM16 9H14V11H16V9Z" fill="url(#paint0_linear_605_5256)"/>
<defs>
<linearGradient id="paint0_linear_605_5256" x1="5.24258" y1="5.91517" x2="15.7633" y2="6.23356" gradientUnits="userSpaceOnUse">
<stop stop-color="#49FFF5"/>
<stop offset="1" stop-color="#2AC1B9"/>
</linearGradient>
</defs>
</svg>
