<svg width="88" height="32" viewBox="0 0 88 32" fill="none" xmlns="http://www.w3.org/2000/svg">
<g clip-path="url(#clip0_706_611)">
<path d="M36.3188 29.2101V11.2678C36.3188 9.68264 36.9485 8.16243 38.0694 7.04157C39.1903 5.92071 40.7105 5.29102 42.2956 5.29102L47.5926 5.2984C49.1736 5.30159 50.6888 5.93193 51.8055 7.05109C52.9222 8.17025 53.5493 9.68676 53.549 11.2678V15.086C53.549 16.6713 52.9194 18.1916 51.7985 19.3126C50.6777 20.4336 49.1575 21.0635 47.5723 21.0637H40.0854" stroke="#939598" stroke-width="0.578188" stroke-linecap="round" stroke-linejoin="round"/>
<path d="M55.0293 5.29102H57.3273C57.9779 5.29102 58.6019 5.54947 59.0619 6.00952C59.522 6.46958 59.7804 7.09354 59.7804 7.74416V21.1459" stroke="#939598" stroke-width="0.578188" stroke-linecap="round" stroke-linejoin="round"/>
<path d="M59.2874 3.21417L58.2456 2.1714C58.1841 2.10999 58.1353 2.03706 58.1021 1.95679C58.0688 1.87652 58.0517 1.79048 58.0517 1.70359C58.0517 1.6167 58.0688 1.53066 58.1021 1.45039C58.1353 1.37012 58.1841 1.29719 58.2456 1.23577L59.2874 0.193926C59.4118 0.0696738 59.5804 -0.00012207 59.7561 -0.00012207C59.9319 -0.00012207 60.1005 0.0696738 60.2249 0.193926L61.2658 1.23577C61.3273 1.29719 61.376 1.37012 61.4093 1.45039C61.4426 1.53066 61.4597 1.6167 61.4597 1.70359C61.4597 1.79048 61.4426 1.87652 61.4093 1.95679C61.376 2.03706 61.3273 2.10999 61.2658 2.1714L60.2203 3.21417C60.1588 3.27567 60.0858 3.32445 60.0054 3.35773C59.9251 3.39101 59.839 3.40814 59.752 3.40814C59.665 3.40814 59.5789 3.39101 59.4986 3.35773C59.4182 3.32445 59.3452 3.27567 59.2837 3.21417" fill="#2AC1B9"/>
<path d="M64.1919 5.2793H66.4705C67.6426 5.27881 68.7669 5.74394 69.596 6.57237L74.9262 11.9026C75.0903 12.0669 75.2852 12.1972 75.4997 12.2862C75.7142 12.3751 75.9442 12.4209 76.1764 12.4209C76.4086 12.4209 76.6385 12.3751 76.853 12.2862C77.0675 12.1972 77.2624 12.0669 77.4265 11.9026L82.7373 6.59269C83.1476 6.18244 83.6348 5.85708 84.1709 5.6352C84.7071 5.41333 85.2817 5.2993 85.8619 5.29962H87.7147" stroke="#939598" stroke-width="0.578188" stroke-linecap="round" stroke-linejoin="round"/>
<path d="M64.1919 21.0275H66.4705C67.6425 21.0279 68.7668 20.5628 69.596 19.7344L74.9262 14.4042C75.2579 14.0728 75.7075 13.8867 76.1764 13.8867C76.6452 13.8867 77.0948 14.0728 77.4265 14.4042L82.7373 19.715C83.5662 20.5433 84.6901 21.0085 85.8619 21.0081H87.7147" stroke="#939598" stroke-width="0.578188" stroke-linecap="round" stroke-linejoin="round"/>
<path d="M22.7332 24.4327C22.171 24.4347 21.614 24.3253 21.0943 24.1108C20.5746 23.8963 20.1026 23.581 19.7055 23.183L15.3322 18.8069C15.1775 18.659 14.9717 18.5764 14.7577 18.5764C14.5437 18.5764 14.3379 18.659 14.1832 18.8069L9.79506 23.195C9.39822 23.5936 8.92633 23.9096 8.40667 24.1247C7.887 24.3398 7.32986 24.4498 6.76742 24.4484H5.91122L11.453 29.9901C12.2841 30.8195 13.4103 31.2853 14.5845 31.2853C15.7587 31.2853 16.8849 30.8195 17.716 29.9901L23.2689 24.4364L22.7332 24.4327Z" fill="#2AC1B9"/>
<path d="M6.76835 8.96752C7.33079 8.96602 7.88795 9.07601 8.40762 9.29114C8.92729 9.50627 9.39917 9.82227 9.79598 10.2209L14.1841 14.6099C14.3366 14.762 14.5432 14.8474 14.7586 14.8474C14.974 14.8474 15.1806 14.762 15.3331 14.6099L19.7055 10.2375C20.102 9.8384 20.5738 9.52201 21.0935 9.3067C21.6133 9.09139 22.1706 8.98143 22.7332 8.98322H23.2596L17.7068 3.4304C17.2956 3.01906 16.8074 2.69276 16.2701 2.47014C15.7328 2.24752 15.1569 2.13293 14.5753 2.13293C13.9937 2.13293 13.4177 2.24752 12.8804 2.47014C12.3431 2.69276 11.8549 3.01906 11.4437 3.4304L5.91122 8.96752H6.76835Z" fill="#2AC1B9"/>
<path d="M27.8528 13.5773L24.4973 10.2218C24.4216 10.2527 24.3407 10.269 24.259 10.2698H22.7332C21.9392 10.2718 21.178 10.5872 20.6153 11.1473L16.2429 15.5169C15.8491 15.91 15.3154 16.1308 14.7591 16.1308C14.2027 16.1308 13.669 15.91 13.2753 15.5169L8.8862 11.1307C8.3236 10.5702 7.56246 10.2545 6.76834 10.2523H4.89523C4.81803 10.2506 4.74175 10.2352 4.66987 10.207L1.2931 13.5773C0.463719 14.4085 -0.0020752 15.5347 -0.0020752 16.7089C-0.0020752 17.883 0.463719 19.0093 1.2931 19.8404L4.66248 23.2098C4.73421 23.1811 4.81059 23.1657 4.88784 23.1645H6.76834C7.56244 23.1622 8.32354 22.8465 8.8862 22.2862L13.2743 17.898C14.0677 17.1056 15.4504 17.1056 16.2429 17.898L20.6153 22.2695C21.178 22.8297 21.9392 23.145 22.7332 23.147H24.259C24.3408 23.1476 24.4217 23.1639 24.4973 23.195L27.8528 19.8395C28.2641 19.4283 28.5904 18.9401 28.8131 18.4028C29.0357 17.8655 29.1503 17.2896 29.1503 16.708C29.1503 16.1263 29.0357 15.5504 28.8131 15.0131C28.5904 14.4758 28.2641 13.9876 27.8528 13.5764" fill="#2AC1B9"/>
<path d="M40.874 27.6853C40.5966 27.6974 40.3214 27.7392 40.0529 27.81V28.9035C40.2582 28.9755 40.4744 29.0118 40.692 29.0107C41.2407 29.0107 41.5002 28.8259 41.5002 28.3429C41.5002 27.8885 41.2878 27.6853 40.874 27.6853ZM39.8682 29.7172V27.5532H40.0187L40.0344 27.6456C40.3142 27.5712 40.6007 27.5251 40.8897 27.5079C41.0899 27.4939 41.2887 27.5515 41.4503 27.6705C41.6351 27.8238 41.6979 28.0713 41.6979 28.341C41.6979 28.6107 41.6055 28.8897 41.3469 29.0365C41.1495 29.135 40.931 29.1835 40.7105 29.1778C40.4876 29.1764 40.266 29.1425 40.0529 29.0772V29.7135L39.8682 29.7172Z" fill="#939598"/>
<path d="M43.0741 27.6788C42.5264 27.6788 42.2816 27.8506 42.2816 28.3336C42.2816 28.8001 42.5227 29.0107 43.0741 29.0107C43.6255 29.0107 43.8638 28.8407 43.8638 28.3586C43.8638 27.8921 43.6227 27.6788 43.0741 27.6788ZM43.7798 29.0107C43.595 29.1418 43.353 29.1797 43.0741 29.1797C42.7952 29.1797 42.5449 29.139 42.3666 29.0107C42.1662 28.8693 42.084 28.6412 42.084 28.3466C42.084 28.0519 42.1662 27.8229 42.3666 27.6788C42.5449 27.5504 42.7896 27.5098 43.0741 27.5098C43.3586 27.5098 43.5978 27.5504 43.7798 27.6788C43.983 27.8229 44.0615 28.0575 44.0615 28.3429C44.0615 28.6283 43.9802 28.8693 43.7798 29.0107Z" fill="#939598"/>
<path d="M46.3752 29.1349L45.7638 27.8224H45.7517L45.1495 29.1349H44.9805L44.334 27.5527H44.5372L45.0793 28.8809H45.0923L45.6815 27.5527H45.8506L46.4546 28.8809H46.4676L46.9968 27.5527H47.1972L46.5451 29.1349H46.3752Z" fill="#939598"/>
<path d="M48.3745 27.6752C47.8665 27.6752 47.6947 27.9014 47.6633 28.2293H49.0857C49.07 27.8691 48.8853 27.6752 48.3745 27.6752ZM48.368 29.1797C48.0642 29.1797 47.8665 29.1354 47.7095 29.0042C47.5248 28.8445 47.4629 28.6126 47.4629 28.3466C47.4629 28.0806 47.5469 27.8229 47.7575 27.6696C47.9417 27.5538 48.1573 27.498 48.3745 27.5098C48.596 27.4965 48.8164 27.5499 49.0072 27.6632C49.2353 27.8165 49.2797 28.0862 49.2797 28.3928H47.6587C47.6652 28.7189 47.7714 29.007 48.3856 29.007C48.6602 28.9998 48.9337 28.9689 49.203 28.9147V29.0809C48.9292 29.1372 48.6511 29.1697 48.3717 29.1779" fill="#939598"/>
<path d="M49.811 29.1352V27.5531H49.9607L49.9764 27.6454C50.3116 27.5605 50.4687 27.5078 50.7633 27.5078H50.7855V27.6833H50.7411C50.4936 27.6833 50.343 27.7175 49.9958 27.808V29.1334L49.811 29.1352Z" fill="#939598"/>
<path d="M51.8584 27.6752C51.3513 27.6752 51.1786 27.9014 51.1472 28.2293H52.5696C52.5539 27.8691 52.3692 27.6752 51.8584 27.6752ZM51.8519 29.1797C51.5481 29.1797 51.3513 29.1354 51.1943 29.0042C51.0096 28.8445 50.9468 28.6126 50.9468 28.3466C50.9468 28.0806 51.0318 27.8229 51.2414 27.6696C51.4257 27.554 51.6412 27.4982 51.8584 27.5098C52.0799 27.4965 52.3003 27.5499 52.4911 27.6632C52.7201 27.8165 52.7682 28.0862 52.7682 28.3928H51.1407C51.1472 28.7189 51.2534 29.007 51.8676 29.007C52.1426 28.9998 52.4163 28.9689 52.686 28.9147V29.0809C52.4122 29.1372 52.1341 29.1696 51.8547 29.1779" fill="#939598"/>
<path d="M54.7893 27.7854C54.5839 27.7137 54.3677 27.6778 54.1501 27.6792C53.6015 27.6792 53.342 27.8639 53.342 28.347C53.342 28.8042 53.5553 29.0046 53.9682 29.0046C54.2454 28.9917 54.5205 28.9506 54.7893 28.8817V27.7854ZM54.8244 29.1357L54.8078 29.0434C54.5281 29.1185 54.2416 29.165 53.9525 29.1819C53.752 29.197 53.5528 29.1389 53.3918 29.0184C53.2071 28.8651 53.1443 28.6176 53.1443 28.3488C53.1443 28.0662 53.2367 27.8002 53.4953 27.6561C53.6929 27.5553 53.9127 27.5058 54.1344 27.512C54.3563 27.5151 54.5766 27.5486 54.7893 27.6118V26.8867H54.974V29.1357H54.8244Z" fill="#939598"/>
<path d="M57.6848 27.6857C57.4075 27.6978 57.1322 27.7396 56.8637 27.8103V28.9011C57.0686 28.9752 57.285 29.0124 57.5029 29.0111C58.0515 29.0111 58.3111 28.8263 58.3111 28.3433C58.3111 27.8888 58.0986 27.6857 57.6848 27.6857ZM58.1577 29.0388C57.9607 29.1372 57.7425 29.1857 57.5223 29.1801C57.2813 29.1786 57.0421 29.1383 56.8139 29.0609L56.8046 29.1357H56.679V26.8867H56.8637V27.6413C57.1379 27.5712 57.4181 27.5273 57.7005 27.5102C57.9008 27.4961 58.0995 27.5537 58.2612 27.6727C58.4459 27.826 58.5087 28.0736 58.5087 28.3433C58.5087 28.613 58.4164 28.8919 58.1577 29.0388Z" fill="#939598"/>
<path d="M58.7544 29.7407V29.5689C58.8468 29.5781 58.9299 29.5846 58.989 29.5846C59.2181 29.5846 59.3584 29.5181 59.4841 29.2586L59.5441 29.1329L58.7128 27.5508H58.9271L59.6355 28.9168H59.6475L60.3209 27.5508H60.5314L59.6411 29.3278C59.4785 29.6502 59.303 29.7564 58.9798 29.7564C58.9035 29.756 58.8273 29.7508 58.7516 29.7407" fill="#939598"/>
<path d="M63.0834 28.2334H62.4701V28.7876H63.0834C63.5064 28.7876 63.6662 28.7405 63.6662 28.5105C63.6662 28.263 63.4464 28.2334 63.0797 28.2334M62.9689 27.3394H62.4683V27.9028H62.9726C63.3891 27.9028 63.5554 27.8529 63.5554 27.6183C63.5554 27.3671 63.3448 27.3412 62.9689 27.3412M63.922 28.9926C63.6958 29.1367 63.4233 29.1423 62.9254 29.1423H61.988V26.9902H62.9033C63.3328 26.9902 63.596 26.9958 63.8149 27.1279C63.8876 27.1712 63.9468 27.2341 63.9856 27.3093C64.0245 27.3846 64.0415 27.4692 64.0347 27.5536C64.0347 27.779 63.9424 27.9296 63.6958 28.0302V28.0422C63.9728 28.105 64.1502 28.2464 64.1502 28.5502C64.1571 28.637 64.1394 28.724 64.099 28.8011C64.0586 28.8783 63.9973 28.9424 63.922 28.9862" fill="#939598"/>
<path d="M66.0245 28.4714C65.8398 28.4557 65.655 28.4464 65.4546 28.4464C65.1323 28.4464 65.0187 28.512 65.0187 28.6598C65.0187 28.8076 65.111 28.8722 65.3604 28.8722C65.5844 28.8649 65.807 28.8339 66.0245 28.7799V28.4714ZM66.1169 29.1354L66.1048 29.0431C65.8248 29.122 65.5366 29.1685 65.2459 29.1816C65.0779 29.1929 64.9106 29.1523 64.7665 29.0653C64.7046 29.0133 64.6566 28.9468 64.6266 28.8717C64.5967 28.7966 64.5858 28.7153 64.5949 28.635C64.6041 28.5547 64.633 28.4779 64.679 28.4115C64.7251 28.345 64.7869 28.291 64.8589 28.2543C65.0251 28.1758 65.2477 28.1693 65.4518 28.1693C65.6172 28.1693 65.8398 28.1786 66.0245 28.1915V28.1629C66.0245 27.9153 65.8619 27.8341 65.4167 27.8341C65.245 27.8341 65.0344 27.8433 64.8339 27.8618V27.5422C65.0565 27.5237 65.3078 27.5117 65.5147 27.5117C65.7917 27.5117 66.0753 27.533 66.2536 27.6586C66.4318 27.7842 66.4697 27.9661 66.4697 28.2007V29.1373L66.1169 29.1354Z" fill="#939598"/>
<path d="M68.5329 29.1358V28.2629C68.5329 27.9748 68.386 27.8713 68.1228 27.8713C67.9043 27.881 67.6875 27.9144 67.4762 27.9711V29.1367H67.0348V27.5536H67.395L67.4107 27.6543C67.6861 27.5732 67.97 27.5248 68.2567 27.5102C68.4514 27.4946 68.6449 27.5526 68.7989 27.6727C68.9236 27.7854 68.9707 27.9424 68.9707 28.1678V29.1358H68.5329Z" fill="#939598"/>
<path d="M70.2195 29.1797C70.0153 29.1797 69.7927 29.151 69.6302 29.0134C69.4362 28.8564 69.3799 28.6098 69.3799 28.3429C69.3799 28.0926 69.4612 27.8192 69.7022 27.6659C69.8999 27.5375 70.1437 27.5098 70.3977 27.5098C70.5824 27.5098 70.7579 27.5218 70.9519 27.5402V27.8792C70.7921 27.8635 70.6009 27.8515 70.4476 27.8515C70.0273 27.8515 69.8297 27.9827 69.8297 28.3466C69.8297 28.6874 69.9775 28.8352 70.322 28.8352C70.5453 28.8279 70.7676 28.8007 70.9861 28.7539V29.079C70.7332 29.1379 70.4752 29.1716 70.2158 29.1797" fill="#939598"/>
<path d="M72.2947 27.8413C71.8745 27.8413 71.6898 27.9734 71.6898 28.3336C71.6898 28.6938 71.8745 28.8472 72.2947 28.8472C72.715 28.8472 72.8933 28.7188 72.8933 28.3586C72.8933 27.9984 72.715 27.8413 72.2947 27.8413ZM73.053 29.0134C72.8591 29.1446 72.6051 29.1797 72.2947 29.1797C71.9844 29.1797 71.7249 29.1418 71.5337 29.0134C71.3139 28.8693 71.2354 28.631 71.2354 28.3466C71.2354 28.0621 71.3139 27.8192 71.5337 27.6751C71.7249 27.5467 71.9779 27.5098 72.2947 27.5098C72.6115 27.5098 72.8591 27.5467 73.053 27.6751C73.2719 27.8192 73.3477 28.0612 73.3477 28.3429C73.3477 28.6246 73.2692 28.8693 73.053 29.0134Z" fill="#939598"/>
<path d="M75.8981 29.1796C75.6321 29.1796 75.3439 29.1352 75.1278 28.957C74.871 28.7436 74.7925 28.4148 74.7925 28.0611C74.7925 27.7442 74.8932 27.3683 75.2275 27.1494C75.488 26.9804 75.8103 26.9453 76.1364 26.9453C76.3746 26.9453 76.6194 26.961 76.8854 26.9832V27.3683C76.6573 27.3499 76.3746 27.3342 76.1557 27.3342C75.5443 27.3342 75.2848 27.566 75.2848 28.0611C75.2848 28.5561 75.5258 28.7907 75.9766 28.7907C76.2987 28.7796 76.6189 28.7366 76.9325 28.6623V29.0447C76.5929 29.1232 76.2464 29.1684 75.8981 29.1796Z" fill="#939598"/>
<path d="M78.2308 27.7923C77.8613 27.7923 77.7228 27.9244 77.6942 28.1617H78.76C78.7471 27.905 78.5965 27.7923 78.2308 27.7923ZM78.1643 29.1777C77.9048 29.1777 77.6692 29.1463 77.4937 29.0022C77.3183 28.8581 77.2397 28.6106 77.2397 28.3409C77.2397 28.0999 77.3183 27.8302 77.5381 27.6731C77.732 27.5355 77.9796 27.5078 78.2308 27.5078C78.4562 27.5078 78.7222 27.5327 78.9161 27.6676C79.1701 27.8459 79.1932 28.122 79.1932 28.4471H77.6914C77.7006 28.6891 77.829 28.8452 78.2742 28.8452C78.5569 28.839 78.8388 28.8119 79.1175 28.7639V29.0743C78.803 29.134 78.4843 29.1686 78.1643 29.1777Z" fill="#939598"/>
<path d="M81.1605 29.1358V28.2629C81.1605 27.9748 81.0136 27.8713 80.7504 27.8713C80.5319 27.881 80.3151 27.9144 80.1039 27.9711V29.1367H79.6624V27.5536H80.0226L80.0383 27.6543C80.3137 27.5732 80.5976 27.5248 80.8843 27.5102C81.079 27.4946 81.2725 27.5526 81.4265 27.6727C81.5512 27.7854 81.5983 27.9424 81.5983 28.1678V29.1358H81.1605Z" fill="#939598"/>
<path d="M82.8573 29.18C82.644 29.18 82.45 29.1199 82.3438 28.9537C82.2567 28.8099 82.2161 28.6429 82.2274 28.4752V27.8823H81.9078V27.5535H82.2274L82.2745 27.0741H82.6643V27.5535H83.2877V27.8823H82.6643V28.3903C82.6584 28.4925 82.6732 28.5949 82.7077 28.6914C82.7548 28.7976 82.8582 28.8382 82.9968 28.8382C83.1028 28.8363 83.2084 28.8258 83.3127 28.8068V29.1236C83.1623 29.1562 83.0093 29.175 82.8555 29.18" fill="#939598"/>
<path d="M83.7207 29.1362V27.554H84.0809L84.0966 27.6547C84.3493 27.5689 84.6132 27.5203 84.8798 27.5106C84.8986 27.5095 84.9174 27.5095 84.9362 27.5106V27.8939C84.8863 27.8939 84.8263 27.8939 84.7829 27.8939C84.5734 27.8947 84.3648 27.9221 84.1622 27.9752V29.1436L83.7207 29.1362Z" fill="#939598"/>
<path d="M86.5435 28.4714C86.3588 28.4557 86.1741 28.4464 85.9727 28.4464C85.6504 28.4464 85.5377 28.512 85.5377 28.6598C85.5377 28.8076 85.63 28.8722 85.8785 28.8722C86.1028 28.8649 86.3257 28.8339 86.5435 28.7799V28.4714ZM86.6359 29.1354L86.6229 29.0431C86.3429 29.122 86.0547 29.1685 85.764 29.1816C85.596 29.1929 85.4287 29.1523 85.2846 29.0653C85.2264 29.0206 85.18 28.9625 85.1494 28.8958C85.1188 28.8292 85.105 28.7561 85.1091 28.6829C85.1048 28.5928 85.1281 28.5035 85.1758 28.427C85.2235 28.3504 85.2933 28.2902 85.376 28.2543C85.5423 28.1758 85.764 28.1693 85.9681 28.1693C86.1343 28.1693 86.3569 28.1786 86.5417 28.1915V28.1629C86.5417 27.9153 86.3782 27.8341 85.9339 27.8341C85.7612 27.8341 85.5515 27.8433 85.3511 27.8618V27.5422C85.5737 27.5237 85.824 27.5117 86.0309 27.5117C86.308 27.5117 86.5915 27.533 86.7698 27.6586C86.9481 27.7842 86.9859 27.9661 86.9859 28.2007V29.1373L86.6359 29.1354Z" fill="#939598"/>
<path d="M87.5521 26.8867H87.9945V29.1357H87.5521V26.8867Z" fill="#939598"/>
</g>
<defs>
<clipPath id="clip0_706_611">
<rect width="88" height="31.2831" fill="white"/>
</clipPath>
</defs>
</svg>
