<svg width="53" height="55" viewBox="0 0 53 55" fill="none" xmlns="http://www.w3.org/2000/svg">
<path d="M52.7291 27.2882C52.7291 42.3591 40.9253 54.5764 26.3645 54.5764C11.8038 54.5764 0 42.3591 0 27.2882C0 12.2173 11.8038 0 26.3645 0C40.9253 0 52.7291 12.2173 52.7291 27.2882ZM1.31823 27.2882C1.31823 41.6055 12.5318 53.212 26.3645 53.212C40.1972 53.212 51.4109 41.6055 51.4109 27.2882C51.4109 12.9709 40.1972 1.36441 26.3645 1.36441C12.5318 1.36441 1.31823 12.9709 1.31823 27.2882Z" fill="#454652"/>
<path d="M26.3645 0C31.579 6.43597e-08 36.6763 1.60043 41.0119 4.59889C45.3475 7.59736 48.7267 11.8592 50.7222 16.8455C52.7177 21.8317 53.2398 27.3185 52.2225 32.6119C51.2052 37.9053 48.6942 42.7675 45.0071 46.5839C41.3199 50.4002 36.6222 52.9991 31.508 54.0521C26.3938 55.105 21.0928 54.5646 16.2753 52.4992C11.4578 50.4338 7.3402 46.9362 4.44323 42.4487C1.54625 37.9612 -1.24363e-07 32.6853 0 27.2882H1.31823C1.31823 32.4154 2.78717 37.4275 5.53929 41.6907C8.29142 45.9538 12.2031 49.2765 16.7797 51.2387C21.3563 53.2008 26.3923 53.7141 31.2508 52.7139C36.1093 51.7136 40.5722 49.2446 44.075 45.6191C47.5778 41.9936 49.9632 37.3744 50.9296 32.3457C51.896 27.317 51.4 22.1045 49.5043 17.3676C47.6086 12.6306 44.3984 8.5819 40.2795 5.73336C36.1607 2.88481 31.3182 1.36441 26.3645 1.36441V0Z" fill="url(#paint0_linear_706_734)"/>
<g clip-path="url(#clip0_706_734)">
<path d="M26 16L34.217 17.826C34.674 17.928 35 18.333 35 18.802V28.789C35 30.795 33.997 32.669 32.328 33.781L26 38L19.672 33.781C18.002 32.668 17 30.795 17 28.79V18.802C17 18.333 17.326 17.928 17.783 17.826L26 16ZM30.452 23.222L25.502 28.171L22.674 25.343L21.26 26.757L25.503 31L31.867 24.636L30.452 23.222Z" fill="white"/>
</g>
<defs>
<linearGradient id="paint0_linear_706_734" x1="10.1685" y1="6.5327" x2="35.396" y2="7.06915" gradientUnits="userSpaceOnUse">
<stop stop-color="#49FFF5"/>
<stop offset="1" stop-color="#2AC1B9"/>
</linearGradient>
<clipPath id="clip0_706_734">
<rect width="24" height="24" fill="white" transform="translate(14 15)"/>
</clipPath>
</defs>
</svg>
