<svg width="119" height="119" viewBox="0 0 119 119" fill="none" xmlns="http://www.w3.org/2000/svg">
<path d="M59.5 0.59375C27.0194 0.59375 0.59375 27.0194 0.59375 59.5C0.59375 91.9806 27.0194 118.406 59.5 118.406C91.9806 118.406 118.406 91.9806 118.406 59.5C118.406 27.0194 91.9806 0.59375 59.5 0.59375ZM73.1476 34.9803L79.9728 40.9445L59.1262 64.7619L52.301 58.2313L73.1476 34.9803ZM41.3552 84.0339L21.3724 64.0312L27.7812 57.6224L47.7669 77.625L41.3552 84.0339ZM59.7634 84.2576L39.5483 64.0312L45.9601 57.6252L59.3159 70.9952L90.7883 34.9803L97.6135 40.9445L59.7634 84.2576Z" fill="#2AC1B9"/>
</svg>
